<?xml version="1.0" encoding="UTF-8" standalone="no"?><!DOCTYPE svg PUBLIC "-//W3C//DTD SVG 1.1//EN" "http://www.w3.org/Graphics/SVG/1.1/DTD/svg11.dtd"><!-- Generated by graphviz version 2.40.1 (20161225.0304)
 --><!-- Title: G Pages: 1 --><svg xmlns="http://www.w3.org/2000/svg" xmlns:xlink="http://www.w3.org/1999/xlink" width="297pt" height="476pt" viewBox="0.00 0.00 297.17 476.00">
<g id="graph0" class="graph" transform="scale(1 1) rotate(0) translate(4 472)">
<title>G</title>
<polygon fill="#ffffff" stroke="transparent" points="-4,4 -4,-472 293.1667,-472 293.1667,4 -4,4"/>
<!-- 0 -->
<g id="node1" class="node">
<title>0</title>
<g id="a_node1"><a xlink:href="www.google.com/0" xlink:title="AddmmBackward">
<ellipse fill="#ffffe0" stroke="#0000ff" cx="144.5834" cy="-18" rx="81.6654" ry="18"/>
<text text-anchor="middle" x="144.5834" y="-13.8" font-family="Times,serif" font-size="14.00" fill="#000000">AddmmBackward</text>
</a>
</g>
</g>
<!-- 1 -->
<g id="node2" class="node">
<title>1</title>
<g id="a_node2"><a xlink:href="www.google.com/1" xlink:title="ReluBackward0">
<ellipse fill="none" stroke="#000000" cx="144.5834" cy="-90" rx="73.4959" ry="18"/>
<text text-anchor="middle" x="144.5834" y="-85.8" font-family="Times,serif" font-size="14.00" fill="#000000">ReluBackward0</text>
</a>
</g>
</g>
<!-- 1&#45;&gt;0 -->
<g id="edge1" class="edge">
<title>1-&gt;0</title>
<path fill="none" stroke="#000000" d="M144.5834,-71.8314C144.5834,-64.131 144.5834,-54.9743 144.5834,-46.4166"/>
<polygon fill="#000000" stroke="#000000" points="148.0835,-46.4132 144.5834,-36.4133 141.0835,-46.4133 148.0835,-46.4132"/>
</g>
<!-- 2 -->
<g id="node3" class="node">
<title>2</title>
<g id="a_node3"><a xlink:href="www.google.com/2" xlink:title="AddmmBackward">
<ellipse fill="#ffffe0" stroke="#0000ff" cx="144.5834" cy="-162" rx="81.6654" ry="18"/>
<text text-anchor="middle" x="144.5834" y="-157.8" font-family="Times,serif" font-size="14.00" fill="#000000">AddmmBackward</text>
</a>
</g>
</g>
<!-- 2&#45;&gt;1 -->
<g id="edge2" class="edge">
<title>2-&gt;1</title>
<path fill="none" stroke="#000000" d="M144.5834,-143.8314C144.5834,-136.131 144.5834,-126.9743 144.5834,-118.4166"/>
<polygon fill="#000000" stroke="#000000" points="148.0835,-118.4132 144.5834,-108.4133 141.0835,-118.4133 148.0835,-118.4132"/>
</g>
<!-- 3 -->
<g id="node4" class="node">
<title>3</title>
<g id="a_node4"><a xlink:href="www.google.com/3" xlink:title="ViewBackward">
<ellipse fill="none" stroke="#000000" cx="144.5834" cy="-234" rx="71.1862" ry="18"/>
<text text-anchor="middle" x="144.5834" y="-229.8" font-family="Times,serif" font-size="14.00" fill="#000000">ViewBackward</text>
</a>
</g>
</g>
<!-- 3&#45;&gt;2 -->
<g id="edge3" class="edge">
<title>3-&gt;2</title>
<path fill="none" stroke="#000000" d="M144.5834,-215.8314C144.5834,-208.131 144.5834,-198.9743 144.5834,-190.4166"/>
<polygon fill="#000000" stroke="#000000" points="148.0835,-190.4132 144.5834,-180.4133 141.0835,-190.4133 148.0835,-190.4132"/>
</g>
<!-- 4 -->
<g id="node5" class="node">
<title>4</title>
<g id="a_node5"><a xlink:href="www.google.com/4" xlink:title="MaxPool2DWithIndicesBackward">
<ellipse fill="#ffffe0" stroke="#0000ff" cx="144.5834" cy="-306" rx="144.6668" ry="18"/>
<text text-anchor="middle" x="144.5834" y="-301.8" font-family="Times,serif" font-size="14.00" fill="#000000">MaxPool2DWithIndicesBackward</text>
</a>
</g>
</g>
<!-- 4&#45;&gt;3 -->
<g id="edge4" class="edge">
<title>4-&gt;3</title>
<path fill="none" stroke="#000000" d="M144.5834,-287.8314C144.5834,-280.131 144.5834,-270.9743 144.5834,-262.4166"/>
<polygon fill="#000000" stroke="#000000" points="148.0835,-262.4132 144.5834,-252.4133 141.0835,-262.4133 148.0835,-262.4132"/>
</g>
<!-- 5 -->
<g id="node6" class="node">
<title>5</title>
<g id="a_node6"><a xlink:href="www.google.com/5" xlink:title="ReluBackward0">
<ellipse fill="none" stroke="#000000" cx="144.5834" cy="-378" rx="73.4959" ry="18"/>
<text text-anchor="middle" x="144.5834" y="-373.8" font-family="Times,serif" font-size="14.00" fill="#000000">ReluBackward0</text>
</a>
</g>
</g>
<!-- 5&#45;&gt;4 -->
<g id="edge5" class="edge">
<title>5-&gt;4</title>
<path fill="none" stroke="#000000" d="M144.5834,-359.8314C144.5834,-352.131 144.5834,-342.9743 144.5834,-334.4166"/>
<polygon fill="#000000" stroke="#000000" points="148.0835,-334.4132 144.5834,-324.4133 141.0835,-334.4133 148.0835,-334.4132"/>
</g>
<!-- 6 -->
<g id="node7" class="node">
<title>6</title>
<g id="a_node7"><a xlink:href="www.google.com/6" xlink:title="ThnnConv2DBackward">
<ellipse fill="#ffffe0" stroke="#0000ff" cx="144.5834" cy="-450" rx="103.081" ry="18"/>
<text text-anchor="middle" x="144.5834" y="-445.8" font-family="Times,serif" font-size="14.00" fill="#000000">ThnnConv2DBackward</text>
</a>
</g>
</g>
<!-- 6&#45;&gt;5 -->
<g id="edge6" class="edge">
<title>6-&gt;5</title>
<path fill="none" stroke="#000000" d="M144.5834,-431.8314C144.5834,-424.131 144.5834,-414.9743 144.5834,-406.4166"/>
<polygon fill="#000000" stroke="#000000" points="148.0835,-406.4132 144.5834,-396.4133 141.0835,-406.4133 148.0835,-406.4132"/>
</g>
</g>
</svg>